/* XPM */
static char *result[] = {
/* columns rows colors chars-per-pixel */
"48 48 12 1 ",
"  c #3B2C2C",
". c #2F3424",
"X c #4B3936",
"o c #484F32",
"O c #56433E",
"+ c #5F673C",
"@ c #7E844C",
"# c #AEAC63",
"$ c #DBCD68",
"% c #F6E191",
"& c #FCEDCF",
"* c None",
/* pixels */
"************************************************",
"************************************************",
"************************************************",
"************************************************",
"******************************.*****************",
"*****************************.#.****************",
"****************************.@#&.***************",
"***************************.@##&&.**************",
"**************************.@###&%&.*************",
"*************************.+@###&%%%.************",
"************************.+@####%%%%%.***********",
"****************........+@@####%%%$$%.**********",
"***************.@@@@##@+@@#####%%$$$%%.*********",
"**************.@@####@@@@#@####%$$$%$%%.********",
"************..@######@@@@@#@###%$$%$%%$$...*****",
"***********.@######$$$@@@@#####%$$$$%$$$%&&.****",
"**********.#####$$$$$$$@#@@####$$$$%$$$%%%&.****",
"*********.###$$$$$$$$$$$##@####$$$%$$$%%%&.*****",
"*********.++###########$$##@###$$$$$$%%%%%.*****",
"*********.o+++####$$$$$$$$##@##$$$$$%%%%%.******",
"**********.o++++#@&$$$$$$$$####$$$##$$$%.*******",
"**********.oo+++@#&&####$$$$###$$##$$$$$.*******",
"***********.oo+@##&%&$$$$$$$$##$#$$$$$$%&.******",
"***********.oo@###&%%%$$$$$$$$#$$$$$$$%%%&.*****",
"************.@#@##%%%%@@%%%%%$$$$$$$$$$$$%%.****",
"***********.@@####%%$$%@@@&&%%%%%%$$@$$$$$$%.***",
"*******XXX.@@@@###%$$$$$@@@@@@@@@@@@$$$$$$$$%.**",
"******XXX .+@##@##%$$$$@+@@@@@@@@@$$$$$$$$$%@.**",
"*******XX .++#####$$$$@@++@@@@@@$$$$$$$$$%@@@.**",
"******XX  .++@$###$$$@@@+++@@@@++%$$$$$%@@@@.***",
"*****XOX .o++@@$##$$@@@@o+++@@++@@@##++@@@@@.***",
"****XOO  .o+++@@$#$@@@@@o++++@@+@@@@@#++@@@@.***",
"***XXOX .oo+++@@@#@@@@@@o+++@@@++@@@@@+++@@.****",
"**XOXX .ooo++++@+@+@@@@@o+++@@@@++@@@@#++++.****",
"**OOO .ooooo+++++@#+@@@@oo++@@@#+++@@@@+++@.****",
"**XOXX ...ooo+++@@@++@@@oo+@@@@#%+++@@@@++.X****",
"***XXXXX  .oo+++@@@#++@@oo+@@@@@#++++@@@++.XX***",
"****XXXXXO .oo+@@@@@+++..o@@@@@@##++++++++.XX***",
"*****XXXOOO .oo+++++++.  .+@@@@@++........XX****",
"*******XXOXX .........   .++++++..       XX*****",
"**********XXXX        XX  ......   XXXXX********",
"************XXXXXXXXXXOOX        XX*************",
"**************XXXXXXXOOOOXXXXXOXXX**************",
"******************XXXXOOOOXXXOOOX***************",
"*********************XXOOOXXXXO*****************",
"************************************************",
"************************************************",
"************************************************"
};
