/* XPM */
static char *result[] = {
/* columns rows colors chars-per-pixel */
"49 49 10 1 ",
"  c #302318",
". c #3E3224",
"X c #563F2F",
"o c #673226",
"O c #5D523C",
"+ c #925743",
"@ c #876E55",
"# c #9C987A",
"$ c #C4A78D",
"% c None",
/* pixels */
"%%%%%%%%%%%%%% %  ...... ......  % %%%%%%%%%%%%%%",
"%%%%%%%%%%%%  . ..#####. .#####.. .  %%%%%%%%%%%%",
"%%%%%%%%%%  ... ..OOOOO. .OOOOO.. ...  %%%%%%%%%%",
"%%%%%%%%% ..##.. .OOOOO. .OOOOO. ..##.. %%%%%%%%%",
"%%%%%%%% .##OO#. ..OOOO. .OOOO.. .#OO##. %%%%%%%%",
"%%%%%%  .#OOOOO.. ...... ...... ..OOOOO#.  %%%%%%",
"%%%%% ..#OOOOOO..  ....   ..... ..OOOOOO#.. %%%%%",
"%%%% . ..OOOOO..                 ..OOOOO.. . %%%%",
"%%%% .. ..OOO..                   ..OOO.. .. %%%%",
"%%% .##. .....    oooo     oooo    ..... .##. %%%",
"%%% .OO#. ...     ooooo   ooooo     ... .#OO. %%%",
"%% .#OOO#.       oo++oo   oo++oo       .#OOO#. %%",
"%% .OOOOO.    o  o++++o   o++++o  o    .OOOOO. %%",
"% ...OOO..   oo  o++++o   o++++o  oo   ..OOO... %",
"% .......   ooo  o++++o   o++++o  ooo   ....... %",
"%%   ...   oooo  o++++o   o++++o  oooo   ...   %%",
"% ...      o+oo  o++++o   o++++o  oo+o      ... %",
"% .....   oo++o  o++++o   o++++o  o++oo   ..... %",
"% .###..  o+++o  o++++o   o++++o  o+++o  ..###. %",
"% .OOO#.  o+++o  o++++o   o++++o  o+++o  .#OOO. %",
"% .OOOO.  o+++o  o++++o   o++++o  o+++o  .OOOO. %",
"% .OOOO.   o+o    o++o     o++o    o+o   .OOOO. %",
"% .OOOO.                                 .OOOO. %",
"% ......  XXXXXXXXXXXXXXXXXXXXXXXXXXXXX  ...... %",
"% .....  X@@@@@@@@@@@@@@@@@@@$@$$$$$@@@X  ..... %",
"%%       X@@@@@@@@@@@@@@@@@@@$@$$$$$@@@X       %%",
"% .....  X@@@@@@@@@@@@@@@@@@@$@$$$$$@@@X  ..... %",
"% .####. XX@@@@@@@@@@@@@@@@@@$@$$$$$@@XX .####. %",
"% .OOOO. XXXXXXXXXXXXXXXXXXXXXXXXXXXXXXX .OOOO. %",
"% .OOOO.  XXXXXXXXXXXXXXXXXXXXXXXXXXXXX  .OOOO. %",
"% .OOOO.                                 .OOOO. %",
"% .OOOO.   ooo    oooo     oooo    ooo   .OOOO. %",
"% ......  ooooo  oooooo   oooooo  ooooo  ...... %",
"% .....   oo+oo  oo++oo   oo++oo  oo+oo   ..... %",
"%%        o+++o  o++++o   o++++o  o+++o        %%",
"% .....   o+++o  o++++o   o++++o  o+++o   ..... %",
"% .####.  o+++o  o++++o   o++++o  o+++o  .####. %",
"% .OOOO.  o+++o  o++++o   o++++o  o+++o  .OOOO. %",
"% .OOOO.  o+++o  o++++o   o++++o  o+++o  .OOOO. %",
"% .OOOO.   o+o    o++o     o++o    o+o   .OOOO. %",
"% .OOOO.                                 .OOOO. %",
"% .OOOO.  XXXXXXXXXXXXXXXXXXXXXXXXXXXXX  .OOOO. %",
"% ...... X@@@@@@@@@@@@@@@@@@@$@$$$$$@@@X ...... %",
"% .....  X@@@@@@@@@@@@@@@@@@@$@$$$$$@@@X  ..... %",
"%%       X@@@@@@@@@@@@@@@@@@@$@$$$$$@@@X       %%",
"% .....  XX@@@@@@@@@@@@@@@@@@$@$$$$$@@XX  ..... %",
"% .O##O. XXXXXXXXXXXXXXXXXXXXXXXXXXXXXXX .O##O. %",
"  .....   XXXXXXXXXXXXXXXXXXXXXXXXXXXXX   .....  ",
"                                                 "
};
