/* XPM */
static char *_67ffa50e5f34b1bb8af204ad0d81b8bRYgs4Zz3zXdBmuxL[] = {
/* columns rows colors chars-per-pixel */
"49 49 10 1 ",
"  c None",
". c #2F1E16",
"X c #3C2D24",
"o c #96906D",
"O c #574A38",
"+ c #6D281F",
"@ c #9B4935",
"# c #54372C",
"$ c #CA9C7B",
"% c #84624C",
/* pixels */
"              . ..XXXXXX.XXXXXX.. .              ",
"            ..X.XXoooooX.XoooooXX.X..            ",
"          ..XXX.XXOOOOOX.XOOOOOXX.XXX..          ",
"         .XXooXX.XOOOOOX.XOOOOOX.XXooXX.         ",
"        .XooOOoX.XXOOOOX.XOOOOXX.XoOOooX.        ",
"      ..XoOOOOOXX.XXXXXX.XXXXXX.XXOOOOOoX..      ",
"     .XXoOOOOOOXX..XXXX...XXXXX.XXOOOOOOoXX.     ",
"    .X.XXOOOOOXX.................XXOOOOOXX.X.    ",
"    .XX.XXOOOXX...................XXOOOXX.XX.    ",
"   .XooX.XXXXX.....................XXXXX.XooX.   ",
"   .XOOoX.XXX.......................XXX.XoOOX.   ",
"  .XoOOOoX.............................XoOOOoX.  ",
"  .XOOOOOX....+........................XOOOOOX.  ",
" .XXXOOOXX...+++.......................XXOOOXXX. ",
" .XXXXXXX...@+++........................XXXXXXX. ",
"  ...XXX...@@+++.+.......................XXX...  ",
" .XXX......@@+++.+..........................XXX. ",
" .XXXXX...@@@+++.+........................XXXXX. ",
" .XoooXX..@@@+++.+.......................XXoooX. ",
" .XOOOoX..@@@+++.+.......................XoOOOX. ",
" .XOOOOX..@@@+++.+.......................XOOOOX. ",
" .XOOOOX..@@@+++.+.......................XOOOOX. ",
" .XOOOOX.......+.+.......................XOOOOX. ",
" .XXXXXX..####...+.......................XXXXXX. ",
" .XXXXX..#$$$$#..+........................XXXXX. ",
"  .......#%%%%##.+.............................  ",
" .XXXXX..#%%%%##.+........................XXXXX. ",
" .XooooX.##%%%##.+.......................XooooX. ",
" .XOOOOX.######..+.......................XOOOOX. ",
" .XOOOOX..####...+.......................XOOOOX. ",
" .XOOOOX.......+.+.......................XOOOOX. ",
" .XOOOOX..@@@+++.+.......................XOOOOX. ",
" .XXXXXX..@@@+++.+.......................XXXXXX. ",
" .XXXXX...@@@+++.+........................XXXXX. ",
"  ........@@@+++.+.............................  ",
" .XXXXX...@@@+++.+........................XXXXX. ",
" .XooooX..@@@+++.+.......................XooooX. ",
" .XOOOOX..@@@+++.+.......................XOOOOX. ",
" .XOOOOX..@@@+++.+.......................XOOOOX. ",
" .XOOOOX..@@@+++.+.......................XOOOOX. ",
" .XOOOOX.......+.+.......................XOOOOX. ",
" .XOOOOX..####...+.......................XOOOOX. ",
" .XXXXXX.#$$$$#..+.......................XXXXXX. ",
" .XXXXX..#%%%%##.+........................XXXXX. ",
"  .......##%%%##.+.............................  ",
" .XXXXX..######..+........................XXXXX. ",
" .XOooOX..####...........................XOooOX. ",
"..XXXXX........+..........................XXXXX..",
"................................................."
};
