/* XPM */
static char *result[] = {
/* columns rows colors chars-per-pixel */
"137 27 9 1 ",
"  c #A79A79",
". c #AA9E7F",
"X c #B7AD93",
"o c #BBB199",
"O c #D5D0C3",
"+ c #F1EFEC",
"@ c #F4F4F3",
"# c gray97",
"$ c None",
/* pixels */
"$$$$$$$$$$$$$$$$$$$$$$$$$$$$$$$$$$$$$$$$$$$$$$$$$$$$$$$$$$$$$$$$$$$$$$$$$$$$$$$$$$$$$$$$$$$$$$$$$$$$$$$$$$$$$$$$$$$$$$$$$$$$$$$$$$$$$$$$$",
"$$$$$$$$$$$$$$$$$$$$$$$$$$$$$$$$$$$$$$$$$$$$$$$$$$$$$$$$$$$$$$$$$$$$$$$$$$$$$$$$$$$$$$$$$$$$$$$$$$$$$$$$$$$$$$$$$$$$$$$$$$$$$$$$$$$$$$$$$",
"$$$$$$$$$$$$$$$$$$$$$$$$$$$$$$$$$$$$$$$$$$$$$$$$$$$$$$$$$$$$$$$$$$$$$$$$$$$$$$$$$$$$$$$$$$$$$$$$$$$$$$$$$$$$$$$$$$$$$$$$$$$$$$$$$$$$$$$$$",
"$$$$$$$$$$$$$$$$$$$$$$$$$$$$$$$$$$$$$$$$$$$$$$$$$$$$$$$$$$$$$$$$$$$$$$$$$$$$$$$$$$$$$$$$$$$$$$$$$$$$$$$$$$$$$$$$$$$$$$$$$$$$$$$$$$$$$$$$$",
"$$$$$$$##$$$$$$$$###$$$$$$$$$$$$$$$$$$$$$$$$$$$$$$$$$$$$$$$$$$$$$$$$$$$$$$$$$$$$$$$$$$$$$$$$$$$$$$$$$$$$$$$$$$$$$$$$$$$$$$$$$$$$$$$$$$$$$",
"$$$$$$$###$$$$$$$###$$$$$$$$$$$$$$$$$$$$$$$$$$$$$$$$$$$$$$$$$$$$$$$$$$$$$$$$$$$$$$$$$$$$$$$$$$$$$$$$$$$$$$$###$$$$$$$$$$$$$$$$$$$$$$$$$$$",
"$$$$$$$####$$$$$####$$$$$$$$$$$$$$$$$$$$$$$$$$$$$$$$$$$$$$$$$$$$$$$$$$$$$$$$$$$$$$$$$$$$$$$$$$$$$$$$$$$$$$$###$$$$$$$$$$$$$$$$$$$$$$$$$$$",
"$$$$$$$####$$$$$####$$$$$#####$$$$$$$$$$$$$$$$$$$$$$$$$$$$#####$$$$$$$###$$$$###$$$$$$####$$$$$$$$####$$$$$###$$$$$######$$$$$$$$$$$$$$$$",
"$$$$$$$#####$$$#####$$$########$$$###$$$###$###$$$$$###$########$$$########$#####$$$########$$$########$$#######$$#######$$$$$$$$$$$$$$$$",
"$$$$$$$+++++$$$+++++$$$+++++++++$$+++$$$+++$$++$$$$$+++$+++++++++$$+++++++++++++++$$+++++++++$$+++++++++$+++++++$++++++++$$$$$$$$$$$$$$$$",
"$$$$$$$OO$OOO$OOOOOO$$$OO$$$$OOO$$OOO$$$OOO$$OOO$$$$OO$$OOO$$$OOO$$OOO$$$OOO$$$OOO$$OOO$$$OOO$$OOO$$$OOO$$$OOO$$$OOO$$$$$$$$$$$$OOO$$$$$$",
"$$$$$$$XX$XXX$XX$XXX$$$XX$$$$XXX$$XXX$$$XXX$$XXX$$$$XX$$XXX$$$XXX$$XXX$$$XXX$$$XXX$$XXX$$$XXX$$XXX$$$XXX$$$XXX$$$XXX$$$$$$$$$$$$XXX$$$$$$",
"$$$$$$$  $$     $   $$$  $$$$   $$   $$$   $$   $$$   $$   $$$   $$   $$$   $$$   $$   $$$   $$   $$$   $$$   $$$   $$$$$$$$$$$$   $$$$$$",
"$$$$$$$..$$....$$...$$$..$$$$...$$...$$$...$$...$$$...$$.........$$...$$$...$$$...$$.........$$...$$$...$$$...$$$........$$$$$$$$$$$$$$$$",
"$$$$$$$oo$$$ooo$$ooo$$$oo$$$$ooo$$ooo$$$ooo$$$oo$$$oo$$$ooooooooo$$ooo$$$ooo$$$ooo$$ooooooooo$$ooo$$$ooo$$$ooo$$$$$oooooo$$$$$$$$$$$$$$$$",
"$$$$$$$OO$$$$$$$$OOO$$$OO$$$$OOO$$OOO$$$OOO$$$OOO$$OO$$$OOO$$$$$$$$OOO$$$OOO$$$OOO$$OOO$$$$$$$$OOO$$$OOO$$$OOO$$$$$$$$$OOO$$$$$$$$$$$$$$$",
"$$$$$$$@@$$$$$$$$@@@$$$@@$$$$@@@$$@@@$$$@@@$$$@@@$@@@$$$@@@$$$$$$$$@@@$$$@@@$$$@@@$$@@@$$$$$$$$@@@$$$@@@$$$@@@$$$$$$$$$@@@$$$$$$@@$$$$$$$",
"$$$$$$$##$$$$$$$$###$$$##$$$$###$$###$$$###$$$###$###$$$###$$$$$$$$###$$$###$$$###$$###$$$$$$$$###$$$###$$$###$$$$$$$$$###$$$$$$###$$$$$$",
"$$$$$$$##$$$$$$$$###$$$#########$$#########$$$$######$$$#########$$###$$$###$$$###$$########$$$###$$$###$$$#####$########$$$$$$$###$$$$$$",
"$$$$$$$##$$$$$$$$###$$$########$$$$########$$$$#####$$$$$########$$###$$$###$$$###$$$#######$$$###$$$###$$$$####$########$$$$$$$##$$$$$$$",
"$$$$$$$$$$$$$$$$$$$$$$$$$$$$$$$$$$$$$$$$$$$$$$$$$$$$$$$$$$$$$$$$$$$$$$$$$$$$$$$$$$$$$$$$$$$$$$$$$$$$$$$$$$$$$$$$$$$$$$$$$$$$$$$$$$$$$$$$$",
"$$$$$$$$$$$$$$$$$$$$$$$$$$$$$$$$$$$$$$$$$$$$$$$$$$$$$$$$$$$$$$$$$$$$$$$$$$$$$$$$$$$$$$$$$$$$$$$$$$$$$$$$$$$$$$$$$$$$$$$$$$$$$$$$$$$$$$$$$",
"$$$$$$$$$$$$$$$$$$$$$$$$$$$$$$$$$$$$$$$$$$$$$$$$$$$$$$$$$$$$$$$$$$$$$$$$$$$$$$$$$$$$$$$$$$$$$$$$$$$$$$$$$$$$$$$$$$$$$$$$$$$$$$$$$$$$$$$$$",
"$$$$$$$$$$$$$$$$$$$$$$$$$$$$$$$$$$$$$$$$$$$$$$$$$$$$$$$$$$$$$$$$$$$$$$$$$$$$$$$$$$$$$$$$$$$$$$$$$$$$$$$$$$$$$$$$$$$$$$$$$$$$$$$$$$$$$$$$$",
"$$$$$$$$$$$$$$$$$$$$$$$$$$$$$$$$$$$$$$$$$$$$$$$$$$$$$$$$$$$$$$$$$$$$$$$$$$$$$$$$$$$$$$$$$$$$$$$$$$$$$$$$$$$$$$$$$$$$$$$$$$$$$$$$$$$$$$$$$",
"$$$$$$$$$$$$$$$$$$$$$$$$$$$$$$$$$$$$$$$$$$$$$$$$$$$$$$$$$$$$$$$$$$$$$$$$$$$$$$$$$$$$$$$$$$$$$$$$$$$$$$$$$$$$$$$$$$$$$$$$$$$$$$$$$$$$$$$$$",
"$$$$$$$$$$$$$$$$$$$$$$$$$$$$$$$$$$$$$$$$$$$$$$$$$$$$$$$$$$$$$$$$$$$$$$$$$$$$$$$$$$$$$$$$$$$$$$$$$$$$$$$$$$$$$$$$$$$$$$$$$$$$$$$$$$$$$$$$$"
};
