/* XPM */
static char *result[] = {
/* columns rows colors chars-per-pixel */
"48 48 5 1 ",
"  c #423934",
". c #5A4E44",
"X c #796755",
"o c #A08662",
"O c None",
/* pixels */
"o .XoooOoooooo XoooooOOoooo ooooo .XooO oooooo  ",
"X .XXXX XXoooX .XooXX. ..XX XoooX .XXXX XXoooX  ",
"O .XXXX .XXXXX ..XXX.  ..XX  XXX  .XXXX .XXXXX O",
"   .XX  .XXXXX.       X .... ...   .XX  .XXXXX. ",
"X .   .  .....  XXXX .X     X   X .   .  ...... ",
". .....        ..XX. .XXX. .XXXX. .....         ",
"   ...   ......  ..   ...   ....   ...   .....  ",
"oo     oo       .  oo.   ooo    oo     oo       ",
"ooX. ooooo oooo .oooooX oooooo oooX. ooooo ooo O",
"XXX. XoooX XX.. .XXooX. XoooXX XXXX. XoooX XX.. ",
"XXX.  XXX  XX..  .XXX.. XXXXX. XXXX.  XXX  XX.. ",
"XX.   ... .... X  ...  .XXXXX.  XX.   ... ....  ",
"   . X   X     X. XXXX  .....  .   . X   X    . ",
".... .XXXX. .XXX. XXX..        ..... .XXXX. ... ",
"...   ....   ...  ...  ......   ...   ....      ",
"           XX    X    .      X             XXX. ",
"XXX.  XXX  XX..  .XXX.. XXXXX. XXXX.  XXX  XX.. ",
"...   ....   ...   ..  ......   ...   ....   .. ",
"O   oo    ooo   .oo  .       oo     oo    ooo  O",
"O .Xooo oooooo Xooooo. oooo ooooo .Xooo oooooX O",
"X .XXXX XXoooX .XooXX. ..XX XoooX .XXXX XXooXXX ",
"  .XXXX .XXXXX ..XXX.  ..XX  XXX  .XXXX .XXXXX. ",
"   ...   ......  ..   ...   ....   ...   ...... ",
"oo     oo       .  oo.   ooo    oo     oo       ",
"OoX. ooooo oooo .oooooX oooooo oooX. ooooo ooo O",
"XXX. XoooX XX.. .XXooX. XoooXX XXXX. XoooX XX.. ",
"XXX.  XXX  XX..  .XXX.. XXXXX. XXXX.  XXX  XX.. ",
"XX.   ... .... X       .XXXXX.  XX.   ... ..... ",
"   . X   X     X. XXXX  .....  .   . X   X      ",
".... .XXXX. .XXX. .XX..        ..... .XXXX. .XX ",
"...   ....   ...   ..  ......   ...   ....   .. ",
"    oo    ooo   .oo  .       oo     oo    ooo   ",
"o .Xooo oooooo Xooooo. oooo ooooo .Xooo oooooo. ",
"X .XXXX XXoooX .XooXX. ..XX XoooX .XXXX XXoooX. ",
"  .XXXX .XXXXX ..XXX.  ..XX  XXX  .XXXX .XXXXX. ",
"O  .XX  .XXXXX.       X .... ...   .XX  .XXXXX O",
"X .   .  .....  XXXX .X     X   X .   .  .....  ",
". .....        ..XX. .XXX. .XXXX. .....         ",
"   ...   ......  ..   ...   ....   ...   ...... ",
"oo     oo       .  oo.   ooo    oo     oo       ",
"ooX. ooooo oooo .oooooX oooooo oooX. ooooo ooo  ",
"OXX. XoooX XX.. .XXooX. XoooXX XXXX. XoooX XX. O",
"XXX.  XXX  XX..  .XXX.. XXXXX. XXXX.  XXX  XX.. ",
"XX.   ... .... .. ...  .XXXXX.  XX.   ... ....  ",
"   . X   X    ... XXXX  ..... ..   . X   X    . ",
".... .XXXX. ..... XXX..       ...... .XXXX. ... ",
"..   .....   ....  .   ......  .....  ...  ... O",
"O OOO     OOO    OO OOO      OO      O   OO   OO"
};
