/* XPM */
static char *result[] = {
/* columns rows colors chars-per-pixel */
"50 50 23 1 ",
"  c black",
". c #381910",
"X c #30782A",
"o c #785313",
"O c #6F4422",
"+ c #0F1341",
"@ c #22396F",
"# c #2B5C49",
"$ c #A75C00",
"% c #C05069",
"& c #35AE2B",
"* c #48A460",
"= c #DDBF2D",
"- c #8AE638",
"; c #2D7188",
": c #4581A5",
"> c #7EBCD1",
", c #E39B9F",
"< c #F9DCBE",
"1 c #E6E3CD",
"2 c #E4F5FC",
"3 c white",
"4 c None",
/* pixels */
"44444444444444444444444444444444444444444444444444",
"44444444444444444444444444444444444444444444444444",
"44444444444444444444444444444444444444444444444444",
"44444444444444444444444444444444444444444444444444",
"44444444444444444444444444444444444444444444444444",
"44444444444444444444444444444444444444444444444444",
"44444444444444444444444444444444444444444444444444",
"444444444444444444444   44444444444444444444444444",
"44444444444444444444 >>> 4    44444444444444444444",
"44444444444444444444 ;>>  ;;;;  444444444444444444",
"4444444444444444444  ;; ;;;;>>;; 44444444444444444",
"444444444444444444 >>  ;,,>>;>>;> 4444444444444444",
"444444444444444444 ;> ;;,,,>;>;;,, 444444444444444",
"444444444444444444 ;;  ,,<<<<<<<<< 444444444444444",
"444444444444444444 >  < <;;;33<<3;; 44     4444444",
"444444444444444444 ; <,<><>   ,,   44 <,<<, 444444",
"444444             > <<%><<>> << > 4 <<,<,<, 4   4",
"4444  3333333333333   <>><%33 << 3   <<,<,<<  =$ 4",
"444 33--------3333---& >><>%,,<<33 o <<,<<,<   = 4",
"44 3333--------333--&&  <>22222<<<2o  <<,<,    = 4",
"44 -333--&&&   ---&&& #% ;>22222222 4         =$ 4",
"4 3--333&&  444  --& <<#,,;>2>222>;   << <<< 4   4",
"4 3---3-& 4444444 - ,<<<#,,;>>22>><<    <<<< 44444",
"4 3----- 444444444 <<,,<<#,,;>22;*#<<,<<<<<< 44444",
"4 3---X& 44444444 ,<,<<<<#***;>>***#<<,<<<<< 44444",
"4       444444444 ,<<<<<,##***;>***#<<<,<<<< 44444",
"4444444444444444 <<<<<<,,###**>;***#<<<<,,, 444444",
"4444444444444444 <<<<<,######*;>**#*#,<<,,, 444444",
"4444444444444444 <<<,,####***;>;****#,,,,, 4444444",
"444444444444444 <<<<  ###****>;>****#,,,, 44444444",
"44444444444444 ,<<<<< ###***********#    444444444",
"44444444444444 <<<<<<< ###***    ***#4444444444444",
"44444444444444 <<<<<  #####* @@@@ ** 4444444444444",
"444444444444444 <<<<, ###@@@@@@@@@ # 4444444444444",
"4444444444444444 ,,,, ++@@@@@@@+@@@ 44444444444444",
"44444444444444444      +@@@@ ++@@@@ 44444444444444",
"444444444444444444444 +++++++ ++@@@ 44444444444444",
"444444444444444444444 ++++++  ::::: 44444444444444",
"444444444444444444444 ++++++  ...O1O 4444444444444",
"444444444444444444444 ++@@@ 4...O1OO 4444444444444",
"444444444444444444444 @@.O 4444.OOO 44444444444444",
"444444444444444444444 ..OOO 4444444444444444444444",
"44444444444444444444444444444444444444444444444444",
"44444444444444444444444444444444444444444444444444",
"44444444444444444444444444444444444444444444444444",
"44444444444444444444444444444444444444444444444444",
"44444444444444444444444444444444444444444444444444",
"44444444444444444444444444444444444444444444444444",
"44444444444444444444444444444444444444444444444444",
"44444444444444444444444444444444444444444444444444"
};
