/* XPM */
static char *result[] = {
/* columns rows colors chars-per-pixel */
"50 50 24 1 ",
"  c black",
". c #381910",
"X c #30782A",
"o c #785313",
"O c #6F4422",
"+ c #0F1341",
"@ c #22396F",
"# c #2B5C49",
"$ c #A75C00",
"% c #C05069",
"& c #35AE2B",
"* c #48A460",
"= c #DDBF2D",
"- c #8AE638",
"; c #D9B46F",
": c #2D7188",
"> c #4581A5",
", c #7EBCD1",
"< c #E39B9F",
"1 c #F9DCBE",
"2 c #E6E3CD",
"3 c #E4F5FC",
"4 c white",
"5 c None",
/* pixels */
"55555555555555555555555555555555555555555555555555",
"55555555555555555555555555555555555555555555555555",
"55555555555555555555555555555555555555555555555555",
"55555555555555555555555555555555555555555555555555",
"55555555555555555555555555555555555555555555555555",
"55555555555555555555555555555555555555555555555555",
"55555555555555555555555555555555555555555555555555",
"55555555555555555555555555555555555555555555555555",
"555555555555555555555   55555555555555555555555555",
"55555555555555555555 ,,, 5    55555555555555555555",
"55555555555555555555 :,,  ::::  555555555555555555",
"5555555555555555555  :: ::::,,:: 55555555555555555",
"555555555555555555 ,,  :<<,,:,,:, 5555555555555555",
"555555555555555555 :, ::<<<,:,::<< 555555555555555",
"555555555555555555 ::  <<111111111 555555555555555",
"555555555555555555 ,  1 1:::44114:: 55     5555555",
"555555555555555555 : 1<1,1,   <<   55 1<11< 555555",
"555555             , 11%,11,, 11 , 5 11<1<1< 5   5",
"5555  4444444444444   1,,1%44 11 4   11<1<11  =$ 5",
"555 44--------4444---& ,,1,%<<1144 o 11<11<1   = 5",
"55 4444--------444--&&  1,333331113o  11<1<    = 5",
"55 -444--&&&   ---&&& #% :,33333333           =$ 5",
"5 4--444&&  555  --& 11#<<:,3,333,:1  11 111 5   5",
"5 4---4-& 5555555 - <111#<<:,,33,,#11   1111 55555",
"5 4----- 555555555 11<<11#**:,33:*#111<11111 55555",
"5 4---X& 555555555 1<1111#***:,,***#111<1111 55555",
"5       555555555 <11111<##***:,***#1111<11 555555",
"55555555555555555 <1111<<####*,:**##<111<<< 555555",
"55555555555555555 11111<###***:,***#<<<<<< 5555555",
"55555555555555555 111<<##****:,:****#<<<< 55555555",
"5555555555555555 1111  ##****,:,****#    555555555",
"5555555555555555 <11111    *********#5555555555555",
"5555555555555555 1111111 @@ ******** 5555555555555",
"5555555555555555 11111  @@@@@ *****# 5555555555555",
"55555555555555555 1111< @@@@@@@*### 55555555555555",
"555555555555555555 <<<< @@@@@@@  ++ 55555555555555",
"5555555555555555555    >@@@@@@  +++ 55555555555555",
"55555555555555555555O2O @@@@  ++++ 555555555555555",
"55555555555555555555O; 5      ++++ 555555555555555",
"555555555555555555555  555555   @@ 555555555555555",
"55555555555555555555555555555 +@..O 55555555555555",
"55555555555555555555555555555  .OOOO 5555555555555",
"55555555555555555555555555555555555555555555555555",
"55555555555555555555555555555555555555555555555555",
"55555555555555555555555555555555555555555555555555",
"55555555555555555555555555555555555555555555555555",
"55555555555555555555555555555555555555555555555555",
"55555555555555555555555555555555555555555555555555",
"55555555555555555555555555555555555555555555555555",
"55555555555555555555555555555555555555555555555555"
};
