/* XPM */
static char *result[] = {
/* columns rows colors chars-per-pixel */
"50 50 24 1 ",
"  c black",
". c #381910",
"X c #30782A",
"o c #785313",
"O c #6F4422",
"+ c #0F1341",
"@ c #22396F",
"# c #2B5C49",
"$ c #A75C00",
"% c #C05069",
"& c #35AE2B",
"* c #48A460",
"= c #DDBF2D",
"- c #8AE638",
"; c #D9B46F",
": c #2D7188",
"> c #4581A5",
", c #7EBCD1",
"< c #E39B9F",
"1 c #F9DCBE",
"2 c #E6E3CD",
"3 c #E4F5FC",
"4 c white",
"5 c None",
/* pixels */
"55555555555555555555555555555555555555555555555555",
"55555555555555555555555555555555555555555555555555",
"55555555555555555555555555555555555555555555555555",
"55555555555555555555555555555555555555555555555555",
"55555555555555555555555555555555555555555555555555",
"55555555555555555555555555555555555555555555555555",
"55555555555555555555555555555555555555555555555555",
"55555555555555555555555555555555555555555555555555",
"55555555555555555555555555   555555555555555555555",
"55555555555555555555    5 ,,, 55555555555555555555",
"555555555555555555  ::::  ,,: 55555555555555555555",
"55555555555555555 ::,,:::: ::  5555555555555555555",
"5555555555555555 ,:,,:,,<<:  ,, 555555555555555555",
"555555555555555 <<::,:,<<<:: ,: 555555555555555555",
"5555555     555 111111111<<  ::             555555",
"555555 <11<1 5 ::41144:::1 1  , 444444444444  5555",
"5   5 <1<1<11 5   <<   ,1,1<1 : 4444--------44 555",
"5 $=  11<1<11   , 11 ,,11,%11 , 444--------4444 55",
"5 =   1<11<11 o 4 11 44%1,,1   &---   &&&--444- 55",
"5 =    <1<11  o %441<<%%,,, &&&--  555  &&444--4 5",
"5 $=         5  311133333, %   - 5555555 &-4---4 5",
"5   5 111 11    33333333,:###   555555555 -----4 5",
"55555 1111    1 :,333,3,:#*##11 555555555 &X---4 5",
"55555 111111<11#*,,33,,:##*#111< 555555555       5",
"55555 11111<11#***:33,:#**#11<<11 5555555555555555",
"55555 1111<111#****,,:****#1111<1 5555555555555555",
"555555 <<<111#*****,:*****#<11111< 555555555555555",
"555555 <<<11<#*****:,****##<<1111< 555555555555555",
"5555555 <<<<<##****,:**#####<11111 555555555555555",
"55555555 <<<#******:,:***####<<111 555555555555555",
"555555555   #*****,,:,****###  1111 55555555555555",
"555555555555#*************#  11111< 55555555555555",
"555555555555#************#  1111111 55555555555555",
"555555555555 **********  @+@  11111 55555555555555",
"555555555555 #********@@@@+  <1111 555555555555555",
"55555555555 + ##****#  @@@@+ <<<< 5555555555555555",
"55555555555 ++++++  555 @@@@@     5555555555555555",
"55555555555 +++++ 555555 @@@@@@>> 5555555555555555",
"55555555555 +++++ 5555555 @@@>>. 55555555555555555",
"555555555555 @@   55555555 >>.OO 55555555555555555",
"555555555555 ..@+ 55555555  .O;2; 5555555555555555",
"55555555555 OOO.  555555555 .OOOO 5555555555555555",
"55555555555555555555555555555555555555555555555555",
"55555555555555555555555555555555555555555555555555",
"55555555555555555555555555555555555555555555555555",
"55555555555555555555555555555555555555555555555555",
"55555555555555555555555555555555555555555555555555",
"55555555555555555555555555555555555555555555555555",
"55555555555555555555555555555555555555555555555555",
"55555555555555555555555555555555555555555555555555"
};
