/* XPM */
static char *result[] = {
/* columns rows colors chars-per-pixel */
"48 48 15 1 ",
"  c #090810",
". c #071925",
"X c #131122",
"o c #212335",
"O c #790B0F",
"+ c #670E10",
"@ c #413D5B",
"# c #9E0B0F",
"$ c #891215",
"% c #C00D12",
"& c #FB0000",
"* c #B56A60",
"= c #E5AF8D",
"- c #FFEFDD",
"; c None",
/* pixels */
";;;;;;;;;;;;;;;;;;;;;;;;;;;;;;;;;;;;;;;;O;;;;;;;",
";;;;;;;;;;;;;;;;;;;;;;;;;;;;;;;;;;;;;;;OOO;;;;;;",
";;;;;;;;;;;;;;;;;;;;;;;;;;;;;;;;;;;;;;OO%O;;;;;;",
";;;;;;;;;;;;;;;;;;;;;XXXX;;;;;;;;;;;;;OO%OO;;;;;",
";;;;;;;;;;;;;;;;;;;;XX@@o ;;;;;;;;;;;OO%%OO;OO;;",
";;;;;;;;;;;;;;;;;;;XX@...o ;;;;;;;;;;O%%%%O;O;;;",
";;;;;;;;;;;;;;;;;;;X@....Xo ;;;;;;;;O%%%%%%O;;;;",
";;;;;;;;;;;;;;;;;;XX@.&.X&o ;;;;;;;O%%++##%%O;;;",
";;;;;;;;;;;;;;;;;;XX@...XXo ;;;;;;;O%+++###%O;;;",
";;;;;;;;;;;;;@;;;;XX@..XXXo ;;;;;;;O%++# ##%O;;;",
";;;;;;;;;;;;;@@;; XX@oXXXoX@; ;;;;OO%+##  +%O;;;",
";;;;;;;;;;;;;o@ooo XX@@ooX X X;;;;OO%%+##++%O;;;",
";;;;;;;;;;;;;@o@@Xo@ XXXX @ XX ;;;;OO% +##%OO;;;",
";;;;;;;;;;;;;X@Xo@ooX@ X @X X X;;;;;;O  ++OO;;;;",
";;;;;;$;;;;;@oXo@@X#ooXo@XX XX  ;;;;;;  OOO;;;;;",
";;;;;$$$;;;;oooX@XXX##o@XX+  XXX;;;;;;  O;;;;;;;",
";;;;$$$$$;;;XoXoXX#ooX#o@+XX   X;;;;;; ;;;;;;;;;",
";;;$$*=--$;;;XoXooX#ooo#+XX+;X X ;;;;  ;;;;;;;;;",
";;$$*=--=*$;;oXXX;oX##oo@X+;;;X @@;;;  ;;;;;;;;;",
";;;$*= ** $;;XoX;;;ooX#oo+X;;; ooo@;;  ;;;;;;;;;",
";;;$***==*$;X@X@;;;XooX#+X;;;;;ooo@;;  ;;;;;;;;;",
";;;;$*==*$;XoX@o;;;;XooXXX;;;;;;oooo; ;;;;;;;;;;",
";;;;;$*=*$;oX@o;;;;;#X@XX+ ;;;;;@ooo; ;;;;;;;;;;",
";;;;;;$$$;@oXo;;;;;Xo##++   ;;;;@@o@  ;;;;;;;;;;",
";;;;;;;;;;o@@o;;;;XooXX     ;;;;;oooXo;;;;;;;;;;",
";;;;;;;X;o@Xo;;;;XXoXo@ XXX ;;;;;;@@oX;;;;;;;;;;",
";;;;;;;oX@Xo;;;;XooXoX XXoX  ;;;;;;XXo;;;;;;;;;;",
";;;;;;;ooXo;;;;;XoXXo@ XoXXX ;;;;;;; ;;;;;;;;;;;",
";;;;;;;;oo;;;;;XXXoXo XooXXX  ;;;;;; ;;;;;;;;;;;",
";;;;;;;;;;;;;;XoXXoXX XXXXXX  ;;;;;; ;;;;;;;;;;;",
";;;;;;;;;;;;;;XXoXoX@X XXoXXX ;;;;; ;;;;;;;;;;;;",
";;;;;;;;;;;;;;XXoXX@Xo XoooXX ;;;;; ;;;;;;;;;;;;",
";;;;;;;;;;;;;;XoXX@Xo; Xo;ooX ;;;;; ;;;;;;;;;;;;",
";;;;;;;;;;;;;;;XX@X@o; X;;ooo ;;;;; ;;;;;;;;;;;;",
";;;;;;;;;;;;;;;;X@XoX;; ;oo o ;;;;; ;;;;;;;;;;;;",
";;;;;;;;;;;;;;;XXooX;;;;;o X o;;;; ;;;;;;;;;;;;;",
";;;;;;;;;;;;;;;XoooX;;;;  XX o;;;; ;;;;;;;;;;;;;",
";;;;;;;;;;;;;;XoooXX;;;; XX   ;;;; ;;;;;;;;;;;;;",
";;;;;;;;;;;;;;XooXX;;;;;XX    ;;;; ;;;;;;;;;;;;;",
";;;;;;;;;;;;;;;XoXX;;;;;;    ;;;;; ;;;;;;;;;;;;;",
";;;;;;;;;;;;;;;oXX;;;;;;    ;;;;; ;;;;;;;;;;;;;;",
";;;;;;;;;;;;;;ooX;;;;;;;   ;;;;;; ;;;;;;;;;;;;;;",
";;;;;;;;;;;;;;ooX;;;;;;;   ;;;;;; ;;;;;;;;;;;;;;",
";;;;;;;;;;;;;;oXX;;;;;;;;  ;;;;;;;;;;;;;;;;;;;;;",
";;;;;;;;;;;;;;oXX;;;;;;;; XX;;;;;;;;;;;;;;;;;;;;",
";;;;;;;;;;;;;oXX;;;;;;;;;;XX;;;;;;;;;;;;;;;;;;;;",
";;;;;;;;;;;;;oXX;;;;;;;;;;;X;;;;;;;;;;;;;;;;;;;;",
";;;;;;;;;;;;;;XX;;;;;;;;;;;;;;;;;;;;;;;;;;;;;;;;"
};
