/* XPM */
static char *result[] = {
/* columns rows colors chars-per-pixel */
"48 48 13 1 ",
"  c #090810",
". c #071925",
"X c #131122",
"o c #212335",
"O c #790B0F",
"+ c #670E10",
"@ c #413D5B",
"# c #9E0B0F",
"$ c #C00D12",
"% c #B56A60",
"& c #E5AF8D",
"* c #FFEFDD",
"= c None",
/* pixels */
"======================================OO========",
"======================================O$O=======",
"======================================O$OO======",
"=====================XXXX=============O$$O======",
"====================XX@@o ===========OO$$OO=====",
"===================XX@...o =========OO$$$OO=====",
"===================X@....Xo =======OO$$$$$O=====",
"==================XX@.X.X.o =======OO$$$$$O=====",
"==================XX@...XXo =======O$++##$O=====",
"============@====XXX@..XXXo ======O$+++###$O====",
"============@@==X XX@oXXXoX@ =====O$++# ##$O====",
"============o@oooo XX@@ooX XX=====O$+##  +$OO===",
"============@o@@Xoo@ XXXX @ X ====O$$+##++$OO===",
"============X@Xo@o#oX@ X @XX X====O$$ +##$$OO===",
"===========@oXo@@X#ooXoo@X XX  ===OO$  ++$OO====",
"===========oooX@XXX##o@XX+  XXX====OO  $$OO=====",
"===========XoXoXX#ooX#o@+XX   X====== OOOO======",
"====%&**====XoXooX#ooo#+XX+=X X ====  ==========",
"===%&**&%===oXXX=oX##oo@X+===X @@===  ==========",
"===%& %% ===XoX===ooX#oo+X=== ooo@==  ==========",
"===%%%&&%==X@X@===XooX#+X=====ooo@==  ==========",
"====%&&%==XoX@o====XooXXX======oooo= ===========",
"=====%&%==oX@o=====#X@XX+ =====@ooo= ===========",
"=========@oXo=====Xo##++   ====@@o@  ===========",
"=========o@@o====XooXX     =====oooX ===========",
"======X=o@Xo====XXoXo@ XXX ======@@oX===========",
"======oX@Xo====XooXoX XXoX  ======XXo===========",
"======ooXo=====XoXXo@ XoXX  ======= ============",
"=======oo======XXoXo XooXXX  ====== ============",
"==============XooXXX XXXXXX  ====== ============",
"==============XXXo@X= XXoXXX ===== =============",
"==============XoXX@o= XooooX ===== =============",
"==============XoX@Xo= Xo=ooo ===== =============",
"==============XoXXXo= X===ooo===== =============",
"===============XX@Xo== ==o  oo==== =============",
"===============XXooX=====o X o=== ==============",
"===============XoooX===== XX  === ==============",
"==============XoooXX==== XX   === ==============",
"==============XooXX=====XX   ==== ==============",
"===============XoXX=====X    ==== ==============",
"===============oXX=======   ==== ===============",
"==============ooX=======X   ==== ===============",
"==============ooX=======XX ===== ===============",
"==============oXX========XX=====================",
"==============Xoo========XXX====================",
"==============XoX=========XX====================",
"===============oX==========X====================",
"================X==============================="
};
