/* XPM */
static char *result[] = {
/* columns rows colors chars-per-pixel */
"48 48 15 1 ",
"  c #090810",
". c #071925",
"X c #131122",
"o c #212335",
"O c #790B0F",
"+ c #670E10",
"@ c #413D5B",
"# c #9E0B0F",
"$ c #891215",
"% c #C00D12",
"& c #FB0000",
"* c #B56A60",
"= c #E5AF8D",
"- c #FFEFDD",
"; c None",
/* pixels */
";;;;;;;;;;;;;;;;;;;;;;;;;;;;;;;;;;;;;;;;O;;;;;;;",
";;;;;;;;;;;;;;;;;;;;;;;;;;;;;;;;;;;;;;;OOO;;;;;;",
";;;;;;;;;;;;;;;;;;;;;XXXX;;;;;;;;;;OO;OO%O;;;O;;",
";;;;;;;;;;;;;;;;;;;;XX@@o ;;;;;;;;;;;OO%%OO;;;;;",
";;;;;;;;;;;;;;;;;;;XX@...o ;;;;;;;;;OO%%%OO;;;;;",
";;;;;;;+;;;;;;;;;;;X@....Xo ;;;;;;;;O%%%%%OO;;;;",
";;;;;;++;;;;;;;;;;XX@.&.X&o ;;;;;;;O%%++##%OO;;;",
";;;;;+$+;;;;;;;;;;XX@...XXo ;;;;;;;O%+++###%O;;;",
";;;;++$$+;;;;@;;;;XX@..XXXo ;;;;;;;O%++# ##%O;;;",
";;;;+$$$+;;;;@@;; XX@oXXXoX@; ;;;;;O%+##  +%O;;;",
";;;;+$$$$+;;;o@ooo XX@@ooX X X;;;;;O%%+##++%O;;;",
";;;+$$$$$$+;;@o@@Xo@ XXXX @ XX ;;;;OO% +##%%O;;;",
";;+$$*=--$$+;X@Xo@ooX@ X @X X X;;;;;OO  ++%OO;;;",
";;+$*=--=*$+@oXo@@X#ooXo@XX XX  ;;;;;O  %%OO;;;;",
";;+$*=&**&$+oooX@XXX##o@XX+  XXX;;;;;;  OO;;;;;;",
";;+$***==*$+XoXoXX#ooX#o@+XX   X;;;;;; ;;;;;;;;;",
";;+$$*==*$$+;;oXooX#ooo#+XX+;X X ;;;;  ;;;;;;;;;",
";;;+$$*=*$+;;XXoX;oX##oo@X+;;;X @@;;;  ;;;;;;;;;",
";;;;+$$$$+;;XoX@X;;ooX#oo+X;;; ooo@;;  ;;;;;;;;;",
";;;;;++++;XoXX@o;;;XooX#+X;;;;;ooo@;;  ;;;;;;;;;",
";;;;;;;;;;X@X@o;;;;;XooXXX;;;;;;oooo; ;;;;;;;;;;",
";;;;;;;;;ooX@o;;;;;;#X@XX+ ;;;;;@ooo; ;;;;;;;;;;",
";;;;;;X;o@@oo;;;;;;Xo##++   ;;;;@@o@  ;;;;;;;;;;",
";;;;;oX@@Xoo;;;;;;XooXX     ;;;;;oooXo;;;;;;;;;;",
";;;;;ooXXo;;;;;;;XXoXo@ XXX ;;;;;;@@oX;;;;;;;;;;",
";;;;;;oo;;;;;;;;XooXoX XXoX  ;;;;;;XXo;;;;;;;;;;",
";;;;;;;;;;;;;;;;XoXXo@ XoXXX ;;;;;;; ;;;;;;;;;;;",
";;;;;;;;;;;;;;;XXXoXo XooXXX  ;;;;;; ;;;;;;;;;;;",
";;;;;;;;;;;;;;XoXXoXX XXXXXX  ;;;;;; ;;;;;;;;;;;",
";;;;;;;;;;;;;;XXoXoX@X XXoXXX ;;;;; ;;;;;;;;;;;;",
";;;;;;;;;;;;;;XXoXX@Xo XoooXX ;;;;; ;;;;;;;;;;;;",
";;;;;;;;;;;;;;XoXX@Xo; Xo;ooX ;;;;; ;;;;;;;;;;;;",
";;;;;;;;;;;;;;;XX@X@o; X;;ooo ;;;;; ;;;;;;;;;;;;",
";;;;;;;;;;;;;;;;X@XoX;; ;oo o ;;;;; ;;;;;;;;;;;;",
";;;;;;;;;;;;;;;XXooX;;;;;o X o;;;; ;;;;;;;;;;;;;",
";;;;;;;;;;;;;;;XoooX;;;;  XX o;;;; ;;;;;;;;;;;;;",
";;;;;;;;;;;;;;XoooXX;;;; XX   ;;;; ;;;;;;;;;;;;;",
";;;;;;;;;;;;;;XooXX;;;;;XX    ;;;; ;;;;;;;;;;;;;",
";;;;;;;;;;;;;;;XoXX;;;;;;    ;;;;; ;;;;;;;;;;;;;",
";;;;;;;;;;;;;;;oXX;;;;;;    ;;;;; ;;;;;;;;;;;;;;",
";;;;;;;;;;;;;;ooX;;;;;;;   ;;;;;; ;;;;;;;;;;;;;;",
";;;;;;;;;;;;;;ooX;;;;;;;   ;;;;;; ;;;;;;;;;;;;;;",
";;;;;;;;;;;;;;oXX;;;;;;;;  ;;;;;;;;;;;;;;;;;;;;;",
";;;;;;;;;;;;;ooXX;;;;;;;; XX;;;;;;;;;;;;;;;;;;;;",
";;;;;;;;;;;;;oXX;;;;;;;;;;XX;;;;;;;;;;;;;;;;;;;;",
";;;;;;;;;;;;;oXX;;;;;;;;;;;X;;;;;;;;;;;;;;;;;;;;",
";;;;;;;;;;;;;oXX;;;;;;;;;;;;;;;;;;;;;;;;;;;;;;;;",
";;;;;;;;;;;;;;X;;;;;;;;;;;;;;;;;;;;;;;;;;;;;;;;;"
};
