/* XPM */
static char *result[] = {
/* columns rows colors chars-per-pixel */
"48 48 14 1 ",
"  c #090810",
". c #071925",
"X c #131122",
"o c #212335",
"O c #790B0F",
"+ c #670E10",
"@ c #413D5B",
"# c #9E0B0F",
"$ c #C00D12",
"% c #FB0000",
"& c #B56A60",
"* c #E5AF8D",
"= c #FFEFDD",
"- c None",
/* pixels */
"--------------------------------------OO--------",
"-------------------------------------OOOO-------",
"------------------------------------OOO$O-------",
"--------------------XXXX------------OO$$OO------",
"-------------------XX@@o -----------OO$$$OO-----",
"------------------XX@...o ---------OOO$$$OOO----",
"------------------X@....Xo --------OO$$$$$OO----",
"-----------------XX@.%.X%o -------OO$++##$$OO---",
"-----------------XX@...XXo -------O$+++###$OO---",
"------------@----XX@..XXXo -------O$++# ##$OO---",
"------------@@-- XX@oXXXoX@- -----O$+##  +$OO---",
"------------o@ooo XX@@ooX X X-----O$$+##++$OO---",
"------------@o@@Xo@ XXXX @ XX ----O$$ +##$$O----",
"------------X@Xo@ooX@ X @X X X----OO$  ++$OO----",
"-----------@oXo@@X#ooXo@XX XX  ----OO  $$OOO----",
"-----------oooX@XXX##o@XX+  XXX-----O  OOOO-----",
"-----------XoXoXX#ooX#o@+XX   X------ --OO------",
"----&*==----XoXooX#ooo#+XX+-X X ----  ----------",
"---&*==*&---oXXX-oX##oo@X+---X @@---  ----------",
"---&* && ---XoX---ooX#oo+X--- ooo@--  ----------",
"---&&&**&--X@X@---XooX#+X-----ooo@--  ----------",
"----&**&--XoX@o----XooXXX------oooo- -----------",
"-----&*&--oX@o-----#X@XX+ -----@ooo- -----------",
"---------@oXo-----Xo##++   ----@@o@  -----------",
"---------o@@o----XooXX     -----oooX -----------",
"------X-o@Xo----XXoXo@ XXX ------@@oX-----------",
"------oX@Xo----XooXoX XXoX  ------XXo-----------",
"------ooXo-----XoXXo@ XoXXX ------- ------------",
"-------oo-----XXXoXo XooXXX  ------ ------------",
"-------------XoXXoXX XXXXXX  ------ ------------",
"-------------XXoXoX@X XXoXXX ----- -------------",
"-------------XXoXX@Xo XoooXX ----- -------------",
"-------------XoXX@Xo- Xo-ooX ----- -------------",
"--------------XX@X@o- X--ooo ----- -------------",
"---------------X@XoX-- -oo o ----- -------------",
"--------------XXooX-----o X o---- --------------",
"--------------XoooX----  XX o---- --------------",
"-------------XoooXX---- XX   ---- --------------",
"-------------XooXX-----XX    ---- --------------",
"--------------XoXX------    ----- --------------",
"--------------oXX------    ----- ---------------",
"-------------ooX-------   ------ ---------------",
"-------------ooX-------   ------ ---------------",
"-------------oXX--------  ----------------------",
"------------ooXX-------- XX---------------------",
"------------oXX----------XX---------------------",
"------------oXX-----------X---------------------",
"-------------XX---------------------------------"
};
